<?xml version="1.0" encoding="utf-8"?>
<!-- Generator: Adobe Illustrator 16.0.3, SVG Export Plug-In . SVG Version: 6.00 Build 0)  -->
<!DOCTYPE svg PUBLIC "-//W3C//DTD SVG 1.1//EN" "http://www.w3.org/Graphics/SVG/1.1/DTD/svg11.dtd">
<svg version="1.1" id="Layer_1" xmlns="http://www.w3.org/2000/svg" xmlns:xlink="http://www.w3.org/1999/xlink" x="0px" y="0px"
	 width="1006.339px" height="629.993px" viewBox="0 0 1006.339 629.993" enable-background="new 0 0 1006.339 629.993"
	 xml:space="preserve">
<g>
	<path fill="#FAFAFA" d="M275.168,49.859l40.601,36.401v44.451h-57.751V97.11h-23.8v51.101l42.001,3.5l39.55,36.4v76.303l-37.8,36.4
		h-64.051l-37.451-36.4v-44.102h57.751v33.25h23.8v-52.5l-41.301-3.15l-40.25-36.4V86.26l37.801-36.401H275.168z"/>
	<path fill="#FAFAFA" d="M475.716,180.063l-38.851,35.35h-37.801v85.402h-57.751V49.859h95.552l38.851,36.401V180.063z
		 M399.064,97.11v71.052h21.351V97.11H399.064z"/>
	<path fill="#FAFAFA" d="M628.662,300.814h-56.701l-4.9-46.201H533.46l-4.9,46.201h-56.351L507.56,49.859h83.651L628.662,300.814z
		 M552.01,103.061h-5.6l-8.75,104.302h25.2L552.01,103.061z"/>
	<path fill="#FAFAFA" d="M773.211,146.111h-56.352V97.11h-24.85v156.452h24.85v-59.851h56.352v70.702l-38.15,36.4h-59.502
		l-41.301-36.4V86.26l37.801-36.401h63.002l38.15,36.401V146.111z"/>
	<path fill="#FAFAFA" d="M901.308,97.11h-48.651v47.251h40.951v47.25h-40.951v61.951h50.051v47.252H794.906V49.859h106.401V97.11z"
		/>
</g>
<g>
	<path fill="#FAFAFA" d="M211.968,437.996l32.201,24.852v67.201l-38.151,36.4H104.866V315.494h101.152l32.9,31.501v66.151
		L211.968,437.996z M162.617,362.745v53.201h23.801v-53.201H162.617z M162.617,463.197v56h23.801v-56H162.617z"/>
	<path fill="#FAFAFA" d="M405.167,566.449h-56.701l-4.9-46.201h-33.601l-4.9,46.201h-56.351l35.351-250.955h83.652L405.167,566.449z
		 M328.516,368.695h-5.6l-8.75,104.302h25.201L328.516,368.695z"/>
	<path fill="#FAFAFA" d="M473.065,519.197h52.151v47.252H415.314V315.494h57.751V519.197z"/>
	<path fill="#FAFAFA" d="M599.061,519.197h52.15v47.252H541.309V315.494h57.752V519.197z"/>
	<path fill="#FAFAFA" d="M762.156,315.494l40.601,36.4v44.451h-57.751v-33.601h-23.801v51.101l42.001,3.5l39.551,36.4v76.303
		l-37.801,36.4h-64.052l-37.45-36.4v-44.102h57.751v33.25h23.801v-52.5l-41.301-3.15l-40.251-36.4v-75.252l37.801-36.4H762.156z"/>
</g>
<path fill="#FAFAFA" d="M998.361,14.066C991.221,5.127,979.952,0,967.445,0H198.264c-24.503,0-48.631,18.521-54.929,42.165
	L1.486,574.639c-3.235,12.146-1.134,24.26,5.765,33.236C14.149,616.852,25.314,622,37.883,622H436.07v-20H37.883
	c-6.399,0-11.646-2.241-14.774-6.313c-3.128-4.07-3.944-9.718-2.297-15.9L162.661,47.313C166.604,32.508,182.908,20,198.264,20
	h769.182c6.486,0,11.916,2.326,15.289,6.549c3.364,4.211,4.431,10.001,3.003,16.303L865.22,574.704
	C861.868,589.5,846.205,602,831.018,602h-3.947v20h3.947c24.669,0,48.261-18.834,53.708-42.876l120.518-531.853
	C1008.001,35.097,1005.493,22.995,998.361,14.066z"/>
<g>
	<path fill="#FAFAFA" d="M465.674,595.074h-5.58v34.919h-9.899v-34.919h-5.58v-8.1h21.059V595.074z"/>
	<path fill="#FAFAFA" d="M492.073,629.993h-9.899v-17.46h-4.14v17.46h-9.899v-43.019h9.899v17.459h4.14v-17.459h9.899V629.993z"/>
	<path fill="#FAFAFA" d="M514.753,595.074h-8.34v8.1h7.021v8.1h-7.021v10.62h8.58v8.1h-18.479v-43.019h18.239V595.074z"/>
	<path fill="#FAFAFA" d="M558.012,629.993h-9.72l-0.84-7.92h-5.76l-0.84,7.92h-9.659l6.059-43.019h14.34L558.012,629.993z
		 M544.872,596.095h-0.96l-1.5,17.879h4.32L544.872,596.095z"/>
	<path fill="#FAFAFA" d="M583.211,604.494l-4.979,4.14l4.979,4.2v17.159h-9.6v-17.159h-4.139v17.159h-9.9v-43.019h16.979l6.659,6.24
		V604.494z M569.473,595.074v9.66h4.139v-9.66H569.473z"/>
	<path fill="#FAFAFA" d="M611.291,603.475h-9.659v-8.4h-4.26v26.819h4.26v-10.26h9.659v12.12l-6.539,6.239h-10.199l-7.08-6.239
		v-30.539l6.479-6.24h10.8l6.539,6.24V603.475z"/>
	<path fill="#FAFAFA" d="M638.711,629.993h-9.72l-0.84-7.92h-5.76l-0.84,7.92h-9.659l6.059-43.019h14.34L638.711,629.993z
		 M625.571,596.095h-0.96l-1.5,17.879h4.32L625.571,596.095z"/>
	<path fill="#FAFAFA" d="M664.15,623.754l-6.42,6.239h-17.519v-43.019h17.159l6.779,6.24V623.754z M650.111,595.074v26.819h4.14
		v-26.819H650.111z"/>
	<path fill="#FAFAFA" d="M686.65,595.074h-8.34v8.1h7.02v8.1h-7.02v10.62h8.58v8.1h-18.479v-43.019h18.239V595.074z"/>
	<path fill="#FAFAFA" d="M729.85,603.114h-9.899v-8.04h-4.56v26.819h4.56v-6.239h-2.46v-8.1h12.359v16.199l-6.54,6.239h-10.919
		l-6.9-6.239v-30.539l6.6-6.24h11.04l6.72,6.24V603.114z"/>
	<path fill="#FAFAFA" d="M757.209,629.993h-9.72l-0.84-7.92h-5.76l-0.84,7.92h-9.659l6.059-43.019h14.34L757.209,629.993z
		 M744.069,596.095h-0.96l-1.5,17.879h4.32L744.069,596.095z"/>
	<path fill="#FAFAFA" d="M789.549,629.993h-9.061v-27.299h-0.42l-4.139,27.299h-3.66l-4.141-27.299h-0.42v27.299h-9.059v-43.019
		h11.639l3.48,20.819h0.899l3.24-20.819h11.64V629.993z"/>
	<path fill="#FAFAFA" d="M812.348,595.074h-8.339v8.1h7.02v8.1h-7.02v10.62h8.579v8.1h-18.479v-43.019h18.238V595.074z"/>
</g>
</svg>
